{
  "accessors": [
    {
      "bufferView": 3,
      "componentType": 5126,
      "count": 1734,
      "max": [
        80.07299041748047,
        181.64125061035156,
        50.240169525146484
      ],
      "min": [
        -80.07299041748047,
        -0.46268123388290405,
        -17.634057998657227
      ],
      "type": "VEC3"
    },
    {
      "bufferView": 3,
      "byteOffset": 20808,
      "componentType": 5126,
      "count": 1734,
      "max": [
        0.9996263980865479,
        0.9999493360519409,
        0.9994808435440063
      ],
      "min": [
        -0.9996263980865479,
        -0.9998978972434998,
        -0.9999041557312012
      ],
      "type": "VEC3"
    },
    {
      "bufferView": 4,
      "componentType": 5126,
      "count": 1734,
      "max": [
        1.0,
        0.9999372363090515,
        0.9993362426757813,
        1.0
      ],
      "min": [
        -1.0,
        -0.9999372959136963,
        -0.9992238283157349,
        -1.0
      ],
      "type": "VEC4"
    },
    {
      "bufferView": 2,
      "componentType": 5126,
      "count": 1734,
      "max": [
        0.9969276189804077,
        0.9967840313911438
      ],
      "min": [
        0.0012690776493400335,
        0.007193952798843384
      ],
      "type": "VEC2"
    },
    {
      "bufferView": 2,
      "byteOffset": 13872,
      "componentType": 5126,
      "count": 1734,
      "max": [
        0.7540431618690491,
        0.959001362323761
      ],
      "min": [
        0.0,
        -0.16053524613380432
      ],
      "type": "VEC2"
    },
    {
      "bufferView": 1,
      "componentType": 5125,
      "count": 7602,
      "type": "SCALAR"
    },
    {
      "bufferView": 5,
      "componentType": 5126,
      "count": 56,
      "max": [
        1.0,
        1.0,
        0.9969173669815063,
        0.0,
        0.618113100528717,
        1.0,
        0.9999980330467224,
        0.0,
        0.9999980330467224,
        0.9234037399291992,
        1.0,
        0.0,
        77.2957763671875,
        93.3182601928711,
        35.06736373901367,
        1.0
      ],
      "min": [
        -0.9992333054542542,
        -1.0,
        -0.9969052076339722,
        0.0,
        -0.618113100528717,
        -0.9823852777481079,
        -0.9241129159927368,
        0.0,
        -0.9999980330467224,
        -0.36504626274108887,
        -0.3818264901638031,
        0.0,
        -77.29576873779297,
        -162.24566650390625,
        -145.3903350830078,
        1.0
      ],
      "type": "MAT4"
    },
    {
      "bufferView": 0,
      "componentType": 5123,
      "count": 1734,
      "type": "VEC4"
    },
    {
      "bufferView": 4,
      "byteOffset": 27744,
      "componentType": 5126,
      "count": 1734,
      "max": [
        1.0,
        0.49847015738487244,
        0.29044443368911743,
        0.24798895418643951
      ],
      "min": [
        0.2520110309123993,
        0.0,
        0.0,
        0.0
      ],
      "type": "VEC4"
    }
  ],
  "asset": {
    "extras": {
      "author": "mws3d (https://sketchfab.com/mws3d)",
      "license": "CC-BY-4.0 (http://creativecommons.org/licenses/by/4.0/)",
      "source": "https://sketchfab.com/3d-models/anthropomorphic-bear-low-poly-07601075f4ff4dbb9792bae819c3e52d",
      "title": "Anthropomorphic Bear - Low Poly"
    },
    "generator": "Sketchfab-16.16.0",
    "version": "2.0"
  },
  "bufferViews": [
    {
      "buffer": 0,
      "byteLength": 13872,
      "byteStride": 8,
      "name": "shortBufferViews",
      "target": 34962
    },
    {
      "buffer": 0,
      "byteLength": 30408,
      "byteOffset": 13872,
      "name": "floatBufferViews",
      "target": 34963
    },
    {
      "buffer": 0,
      "byteLength": 27744,
      "byteOffset": 44280,
      "byteStride": 8,
      "name": "floatBufferViews",
      "target": 34962
    },
    {
      "buffer": 0,
      "byteLength": 41616,
      "byteOffset": 72024,
      "byteStride": 12,
      "name": "floatBufferViews",
      "target": 34962
    },
    {
      "buffer": 0,
      "byteLength": 55488,
      "byteOffset": 113640,
      "byteStride": 16,
      "name": "floatBufferViews",
      "target": 34962
    },
    {
      "buffer": 0,
      "byteLength": 3584,
      "byteOffset": 169128,
      "name": "floatBufferViews"
    }
  ],
  "buffers": [
    {
      "byteLength": 172712,
      "uri": "scene.bin"
    }
  ],
  "images": [
    {
      "uri": "textures/Bear_Material_baseColor.png"
    },
    {
      "uri": "textures/Bear_Material_metallicRoughness.png"
    },
    {
      "uri": "textures/Bear_Material_normal.png"
    }
  ],
  "materials": [
    {
      "doubleSided": true,
      "name": "Bear_Material",
      "normalTexture": {
        "index": 2
      },
      "pbrMetallicRoughness": {
        "baseColorTexture": {
          "index": 0
        },
        "metallicRoughnessTexture": {
          "index": 1
        }
      }
    }
  ],
  "meshes": [
    {
      "name": "Bear Body_Bear_Material_0",
      "primitives": [
        {
          "attributes": {
            "JOINTS_0": 7,
            "NORMAL": 1,
            "POSITION": 0,
            "TANGENT": 2,
            "TEXCOORD_0": 3,
            "TEXCOORD_1": 4,
            "TEXCOORD_2": 3,
            "WEIGHTS_0": 8
          },
          "indices": 5,
          "material": 0,
          "mode": 4
        }
      ]
    }
  ],
  "nodes": [
    {
      "children": [
        1
      ],
      "matrix": [
        1.0,
        0.0,
        0.0,
        0.0,
        0.0,
        2.220446049250313e-16,
        -1.0,
        0.0,
        0.0,
        1.0,
        2.220446049250313e-16,
        0.0,
        0.0,
        0.0,
        0.0,
        1.0
      ],
      "name": "Sketchfab_model"
    },
    {
      "children": [
        2
      ],
      "matrix": [
        0.009999999776482582,
        0.0,
        0.0,
        0.0,
        0.0,
        0.0,
        0.009999999776482582,
        0.0,
        0.0,
        -0.009999999776482582,
        0.0,
        0.0,
        0.0,
        0.0,
        0.0,
        1.0
      ],
      "name": "0fbdea8bad794db59610946a546dfbc7.fbx"
    },
    {
      "children": [
        3
      ],
      "name": "RootNode"
    },
    {
      "children": [
        4
      ],
      "matrix": [
        1.0,
        0.0,
        0.0,
        0.0,
        0.0,
        -4.371139006309477e-08,
        -0.999999999999999,
        0.0,
        0.0,
        0.999999999999999,
        -4.371139006309477e-08,
        0.0,
        0.0,
        0.0,
        0.0,
        1.0
      ],
      "name": "Anthropo_Bear_rig"
    },
    {
      "children": [
        5,
        7,
        6
      ],
      "name": "Object_4"
    },
    {
      "children": [
        8
      ],
      "name": "_rootJoint"
    },
    {
      "matrix": [
        1.0000000000085643,
        0.0,
        0.0,
        0.0,
        0.0,
        6.123233995789207e-17,
        -1.0000000000085643,
        0.0,
        0.0,
        1.0,
        6.123233995736766e-17,
        0.0,
        -1.2755846726109077e-12,
        0.0,
        -1.028084284371289e-10,
        1.0
      ],
      "name": "Object_6"
    },
    {
      "mesh": 0,
      "name": "Object_7",
      "skin": 0
    },
    {
      "children": [
        9,
        47,
        55
      ],
      "name": "root.x_01",
      "rotation": [
        0.7071068286895752,
        -2.497902414688724e-06,
        -2.4979021873150486e-06,
        0.7071068286895752
      ],
      "scale": [
        1.0,
        1.0,
        0.9999999403953552
      ],
      "translation": [
        0.6433735489845276,
        -11.593159675598145,
        77.03469848632813
      ]
    },
    {
      "children": [
        10
      ],
      "name": "spine_01.x_02",
      "rotation": [
        -0.06796470284461975,
        -0.003290136344730854,
        0.00022461281332653016,
        0.9976822733879089
      ],
      "scale": [
        0.9999999403953552,
        1.0000001192092896,
        1.0000001192092896
      ],
      "translation": [
        -1.1384901881683618e-05,
        11.721626281738281,
        -1.604461431503296
      ]
    },
    {
      "children": [
        11
      ],
      "name": "spine_02.x_03",
      "rotation": [
        2.5676380780662728e-14,
        0.0033014125656336546,
        -5.563943403230631e-11,
        0.9999945759773254
      ],
      "scale": [
        0.9999998807907104,
        1.0,
        0.9999999403953552
      ],
      "translation": [
        3.725290298461914e-09,
        11.830944061279297,
        -2.4121254682540894e-07
      ]
    },
    {
      "children": [
        12
      ],
      "name": "spine_03.x_04",
      "rotation": [
        -2.9802318834981634e-08,
        -1.1898804785914763e-07,
        -4.145226262936008e-12,
        1.0
      ],
      "scale": [
        1.0,
        1.0000001192092896,
        1.0
      ],
      "translation": [
        -6.703066901536658e-08,
        11.830945014953613,
        -8.006890084288898e-07
      ]
    },
    {
      "children": [
        13
      ],
      "name": "spine_04.x_00",
      "rotation": [
        1.4901162970204496e-08,
        -1.2176893133685092e-14,
        9.272100155469586e-16,
        1.0
      ],
      "scale": [
        0.9999999403953552,
        0.9999999403953552,
        0.9999999403953552
      ],
      "translation": [
        8.456868982875676e-08,
        11.83092975616455,
        -9.537965297568007e-07
      ]
    },
    {
      "children": [
        14,
        17,
        32
      ],
      "name": "spine_05.x_05",
      "rotation": [
        2.2351741790771484e-08,
        1.517882834684553e-18,
        -9.540979117872439e-18,
        1.0
      ],
      "scale": [
        1.0,
        1.0,
        1.0000001192092896
      ],
      "translation": [
        1.4350979427035782e-07,
        11.830930709838867,
        -7.629516403540038e-06
      ]
    },
    {
      "children": [
        15
      ],
      "name": "c_subneck_1.x_06",
      "rotation": [
        0.19211561977863312,
        -0.020059863105416298,
        -0.0039278133772313595,
        0.981159508228302
      ],
      "scale": [
        1.0,
        1.0000003576278687,
        1.000000238418579
      ],
      "translation": [
        2.363621121048709e-08,
        11.830967903137207,
        7.986900527612306e-06
      ]
    },
    {
      "children": [
        16
      ],
      "name": "neck.x_07",
      "rotation": [
        -1.5926820751133164e-08,
        -0.027186749503016472,
        -1.76584347144626e-08,
        0.9996303915977478
      ],
      "scale": [
        1.0000001192092896,
        1.0,
        0.9999997615814209
      ],
      "translation": [
        -8.940696716308594e-08,
        5.978760719299316,
        5.23589551448822e-06
      ]
    },
    {
      "name": "head.x_08",
      "rotation": [
        -0.089154914021492,
        -0.008864540606737137,
        0.0163264162838459,
        0.9958444833755493
      ],
      "scale": [
        1.0000001192092896,
        0.9999998211860657,
        0.9999999403953552
      ],
      "translation": [
        -6.556510925292969e-07,
        5.978734016418457,
        -1.2703239917755127e-06
      ]
    },
    {
      "children": [
        18
      ],
      "name": "shoulder.l_024",
      "rotation": [
        -0.4653743505477905,
        -0.46537432074546814,
        -0.5323784351348877,
        0.5323784947395325
      ],
      "scale": [
        1.0,
        0.9999998211860657,
        1.0000001192092896
      ],
      "translation": [
        6.666677474975586,
        7.171321392059326,
        -4.853119373321533
      ]
    },
    {
      "children": [
        19,
        20,
        21
      ],
      "name": "arm_stretch.l_025",
      "rotation": [
        -0.5228734612464905,
        0.2597412168979645,
        -0.02026122808456421,
        0.8116201758384705
      ],
      "scale": [
        1.0000001192092896,
        1.0000001192092896,
        1.0
      ],
      "translation": [
        1.5038324363558786e-07,
        20.000022888183594,
        -1.7962597098630795e-07
      ]
    },
    {
      "name": "arm_twist.l_026",
      "rotation": [
        -4.956510792908375e-07,
        -0.22180083394050598,
        -1.2993606901545718e-07,
        0.9750919938087463
      ],
      "scale": [
        0.9999999403953552,
        0.9999998807907104,
        0.9999999403953552
      ],
      "translation": [
        -7.510185241699219e-06,
        7.927417755126953e-06,
        4.827976226806641e-06
      ]
    },
    {
      "name": "arm_twist_2.l_027",
      "rotation": [
        -3.5346820936865697e-07,
        -0.11159729957580566,
        -9.704389292153337e-09,
        0.9937534928321838
      ],
      "scale": [
        0.9999998807907104,
        1.0,
        1.0000001192092896
      ],
      "translation": [
        1.3828277587890625e-05,
        10.486520767211914,
        -2.6464462280273438e-05
      ]
    },
    {
      "children": [
        22,
        23,
        24
      ],
      "name": "forearm_stretch.l_028",
      "rotation": [
        -5.320144396137039e-07,
        -2.0191863825402834e-07,
        -0.31958454847335815,
        0.9475577473640442
      ],
      "scale": [
        1.0,
        0.9999999403953552,
        1.0000003576278687
      ],
      "translation": [
        1.049041748046875e-05,
        31.45954704284668,
        -1.71661376953125e-05
      ]
    },
    {
      "name": "forearm_twist.l_029",
      "rotation": [
        8.38794065316506e-08,
        0.1622418314218521,
        -9.684826807188074e-08,
        0.9867510199546814
      ],
      "scale": [
        1.0000001192092896,
        0.9999996423721313,
        1.0000001192092896
      ],
      "translation": [
        4.708766937255859e-06,
        26.089618682861328,
        -3.8743019104003906e-07
      ]
    },
    {
      "name": "forearm_twist_2.l_030",
      "rotation": [
        -1.655704267022884e-07,
        0.23159798979759216,
        -1.2279506300671983e-08,
        0.9728115797042847
      ],
      "scale": [
        0.9999998807907104,
        1.0000001192092896,
        0.9999997615814209
      ],
      "translation": [
        9.5367431640625e-07,
        13.044801712036133,
        -7.152557373046875e-07
      ]
    },
    {
      "children": [
        25,
        29
      ],
      "name": "hand.l_031",
      "rotation": [
        -0.09560834616422653,
        0.15894827246665955,
        0.04020921140909195,
        0.9818236827850342
      ],
      "scale": [
        0.9999998807907104,
        0.9999998807907104,
        0.9999997019767761
      ],
      "translation": [
        9.5367431640625e-07,
        39.134437561035156,
        -3.814697265625e-06
      ]
    },
    {
      "children": [
        26
      ],
      "name": "index1_base.l_035",
      "rotation": [
        0.029325608164072037,
        -0.004124095197767019,
        -0.13919225335121155,
        0.9898225665092468
      ],
      "scale": [
        0.9999999403953552,
        0.9999999403953552,
        0.9999999403953552
      ],
      "translation": [
        0.8443915843963623,
        5.615845203399658,
        -0.043317556381225586
      ]
    },
    {
      "children": [
        27
      ],
      "name": "index1.l_036",
      "rotation": [
        -0.04778259992599487,
        0.0007089274004101753,
        0.06248819828033447,
        0.9969009757041931
      ],
      "scale": [
        0.9999998807907104,
        0.9999999403953552,
        0.9999999403953552
      ],
      "translation": [
        4.291534423828125e-06,
        9.521693229675293,
        -1.1444091796875e-05
      ]
    },
    {
      "children": [
        28
      ],
      "name": "index2.l_037",
      "rotation": [
        0.05187643691897392,
        0.0005531502538360655,
        0.03595338016748428,
        0.9980060458183289
      ],
      "scale": [
        0.9999999403953552,
        0.9999999403953552,
        0.9999998807907104
      ],
      "translation": [
        9.5367431640625e-07,
        5.790581226348877,
        6.198883056640625e-06
      ]
    },
    {
      "name": "index3.l_038",
      "rotation": [
        -0.09768079966306686,
        0.0020939388778060675,
        -0.06808525323867798,
        0.9928839206695557
      ],
      "scale": [
        0.9999999403953552,
        0.9999998807907104,
        1.0000001192092896
      ],
      "translation": [
        -2.86102294921875e-06,
        5.44813346862793,
        1.33514404296875e-05
      ]
    },
    {
      "children": [
        30
      ],
      "name": "thumb1.l_032",
      "rotation": [
        0.033926088362932205,
        -0.02062476985156536,
        -0.40810802578926086,
        0.9120698571205139
      ],
      "scale": [
        0.9999998807907104,
        1.0,
        0.9999999403953552
      ],
      "translation": [
        6.930513381958008,
        6.2097368240356445,
        1.561058521270752
      ]
    },
    {
      "children": [
        31
      ],
      "name": "thumb2.l_033",
      "rotation": [
        -0.05873658508062363,
        -0.08234844356775284,
        -0.04059369117021561,
        0.9940428137779236
      ],
      "scale": [
        1.000000238418579,
        1.0000001192092896,
        1.000000238418579
      ],
      "translation": [
        1.4781951904296875e-05,
        7.445709228515625,
        4.76837158203125e-06
      ]
    },
    {
      "name": "thumb3.l_034",
      "rotation": [
        -0.06983094662427902,
        0.3337845802307129,
        0.22512125968933105,
        0.9127058386802673
      ],
      "scale": [
        1.0000001192092896,
        1.0,
        0.9999999403953552
      ],
      "translation": [
        -7.152557373046875e-06,
        4.400012016296387,
        -6.9141387939453125e-06
      ]
    },
    {
      "children": [
        33
      ],
      "name": "shoulder.r_09",
      "rotation": [
        -0.4653743505477905,
        0.46537432074546814,
        0.5323784351348877,
        0.5323784947395325
      ],
      "scale": [
        1.0,
        0.9999998211860657,
        1.0000001192092896
      ],
      "translation": [
        -6.666677951812744,
        7.171321392059326,
        -4.853119373321533
      ]
    },
    {
      "children": [
        34,
        35,
        36
      ],
      "name": "arm_stretch.r_010",
      "rotation": [
        -0.5259429812431335,
        -0.25201162695884705,
        0.030633915215730667,
        0.8117485642433167
      ],
      "scale": [
        1.0000003576278687,
        1.0000020265579224,
        1.000000238418579
      ],
      "translation": [
        -1.0850487797142705e-07,
        20.000017166137695,
        -1.8575889271232882e-07
      ]
    },
    {
      "name": "arm_twist.r_011",
      "rotation": [
        1.2004069560589414e-07,
        0.22137407958507538,
        -2.258936433463532e-07,
        0.9751889705657959
      ],
      "scale": [
        1.0,
        0.9999977350234985,
        0.9999998211860657
      ],
      "translation": [
        -3.337860107421875e-06,
        1.1056661605834961e-05,
        -5.424022674560547e-06
      ]
    },
    {
      "name": "arm_twist_2.r_012",
      "rotation": [
        -9.711565240877462e-08,
        0.11137980967760086,
        -1.0344834322495444e-07,
        0.9937779307365417
      ],
      "scale": [
        0.9999995827674866,
        0.9999998211860657,
        1.0
      ],
      "translation": [
        6.9141387939453125e-06,
        10.48648452758789,
        -7.152557373046875e-06
      ]
    },
    {
      "children": [
        37,
        38,
        39
      ],
      "name": "forearm_stretch.r_013",
      "rotation": [
        -6.054606416228125e-08,
        2.2400914190257026e-07,
        0.35269564390182495,
        0.935738205909729
      ],
      "scale": [
        0.9999991655349731,
        0.9999985098838806,
        1.0000001192092896
      ],
      "translation": [
        1.2874603271484375e-05,
        31.459501266479492,
        5.0067901611328125e-06
      ]
    },
    {
      "name": "forearm_twist.r_014",
      "rotation": [
        9.745308204855974e-08,
        -0.21346917748451233,
        1.3187640490741614e-07,
        0.9769498109817505
      ],
      "scale": [
        1.0000001192092896,
        1.0,
        1.0
      ],
      "translation": [
        2.1457672119140625e-06,
        26.089624404907227,
        7.68899917602539e-06
      ]
    },
    {
      "name": "forearm_twist_2.r_015",
      "rotation": [
        -1.5682580567499826e-07,
        -0.25688862800598145,
        4.570068767861812e-09,
        0.9664410352706909
      ],
      "scale": [
        1.000000238418579,
        1.0000001192092896,
        1.000000238418579
      ],
      "translation": [
        2.384185791015625e-06,
        13.044818878173828,
        5.245208740234375e-06
      ]
    },
    {
      "children": [
        40,
        44
      ],
      "name": "hand.r_016",
      "rotation": [
        0.0029356060549616814,
        -0.2133217304944992,
        -0.026454880833625793,
        0.9766193628311157
      ],
      "scale": [
        1.0,
        1.0000003576278687,
        0.9999997019767761
      ],
      "translation": [
        -2.384185791015625e-06,
        39.13444900512695,
        2.86102294921875e-06
      ]
    },
    {
      "children": [
        41
      ],
      "name": "index1_base.r_020",
      "rotation": [
        0.029325619339942932,
        0.004124085884541273,
        0.13919220864772797,
        0.9898225665092468
      ],
      "scale": [
        0.9999999403953552,
        1.0,
        1.0000001192092896
      ],
      "translation": [
        -0.8443946838378906,
        5.615809440612793,
        -0.043304443359375
      ]
    },
    {
      "children": [
        42
      ],
      "name": "index1.r_021",
      "rotation": [
        -0.04778263717889786,
        -0.0007089435239322484,
        -0.06248810887336731,
        0.9969009757041931
      ],
      "scale": [
        1.0000001192092896,
        0.9999999403953552,
        1.0
      ],
      "translation": [
        -2.384185791015625e-06,
        9.521695137023926,
        7.62939453125e-06
      ]
    },
    {
      "children": [
        43
      ],
      "name": "index2.r_022",
      "rotation": [
        0.05187644436955452,
        -0.0005531407659873366,
        -0.035953424870967865,
        0.9980060458183289
      ],
      "scale": [
        0.9999999403953552,
        0.9999997615814209,
        0.9999998211860657
      ],
      "translation": [
        3.814697265625e-06,
        5.790582656860352,
        3.814697265625e-06
      ]
    },
    {
      "name": "index3.r_023",
      "rotation": [
        -0.09768085181713104,
        -0.002093992196023464,
        0.06808525323867798,
        0.9928839206695557
      ],
      "scale": [
        1.0,
        1.0,
        1.0000001192092896
      ],
      "translation": [
        -7.62939453125e-06,
        5.448156356811523,
        -8.58306884765625e-06
      ]
    },
    {
      "children": [
        45
      ],
      "name": "thumb1.r_017",
      "rotation": [
        0.03392607718706131,
        0.02062469720840454,
        0.4081081449985504,
        0.9120698571205139
      ],
      "scale": [
        1.0,
        0.9999999403953552,
        1.0000001192092896
      ],
      "translation": [
        -6.930518627166748,
        6.209746837615967,
        1.561065673828125
      ]
    },
    {
      "children": [
        46
      ],
      "name": "thumb2.r_018",
      "rotation": [
        -0.058736711740493774,
        0.08234838396310806,
        0.04059366509318352,
        0.9940428137779236
      ],
      "scale": [
        0.9999998807907104,
        0.9999997019767761,
        0.9999997615814209
      ],
      "translation": [
        1.2040138244628906e-05,
        7.445705413818359,
        -1.239776611328125e-05
      ]
    },
    {
      "name": "thumb3.r_019",
      "rotation": [
        -0.06983102113008499,
        -0.3337846100330353,
        -0.22512127459049225,
        0.9127057790756226
      ],
      "scale": [
        0.9999998807907104,
        0.9999998807907104,
        1.0
      ],
      "translation": [
        1.0728836059570313e-05,
        4.40000057220459,
        -1.9073486328125e-06
      ]
    },
    {
      "children": [
        48,
        53,
        54
      ],
      "name": "thigh_stretch.l_039",
      "rotation": [
        0.7752026319503784,
        0.21218876540660858,
        0.5804347395896912,
        0.13089025020599365
      ],
      "scale": [
        1.0000001192092896,
        1.0,
        0.9999998211860657
      ],
      "translation": [
        14.368426322937012,
        0.0,
        -0.00010129201109521091
      ]
    },
    {
      "children": [
        49,
        51,
        52
      ],
      "name": "leg_stretch.l_042",
      "rotation": [
        -1.4086020883041783e-07,
        -5.138439007623674e-09,
        0.4133876860141754,
        0.9105551242828369
      ],
      "scale": [
        1.0000001192092896,
        1.0000001192092896,
        1.0000001192092896
      ],
      "translation": [
        -1.0967254638671875e-05,
        34.28158950805664,
        3.0994415283203125e-06
      ]
    },
    {
      "children": [
        50
      ],
      "name": "foot.l_043",
      "rotation": [
        0.46117323637008667,
        0.5119997262954712,
        -0.48284244537353516,
        0.5404060482978821
      ],
      "scale": [
        1.0000003576278687,
        0.9999999403953552,
        0.9999998211860657
      ],
      "translation": [
        4.76837158203125e-07,
        36.31660079956055,
        -3.6954879760742188e-06
      ]
    },
    {
      "name": "toes_01.l_044",
      "rotation": [
        -1.295374563170526e-08,
        0.999456524848938,
        0.03296493738889694,
        9.100305078391102e-07
      ],
      "scale": [
        1.0000004768371582,
        1.0000003576278687,
        1.0000001192092896
      ],
      "translation": [
        -2.5536974135320634e-06,
        22.28493881225586,
        -1.430511474609375e-06
      ]
    },
    {
      "name": "leg_twist.l_045",
      "rotation": [
        -7.255562195496168e-08,
        -0.0023662829771637917,
        3.708131757207411e-08,
        0.9999971985816956
      ],
      "scale": [
        1.0000001192092896,
        1.0,
        1.0
      ],
      "translation": [
        6.198883056640625e-06,
        24.21107292175293,
        -4.76837158203125e-07
      ]
    },
    {
      "name": "leg_twist_2.l_046",
      "rotation": [
        3.0761853508920467e-07,
        -0.0011835485929623246,
        2.3785173652868252e-07,
        0.9999992847442627
      ],
      "scale": [
        0.9999990463256836,
        0.9999988079071045,
        0.999998927116394
      ],
      "translation": [
        1.7763568394002505e-15,
        12.105552673339844,
        2.7418136596679688e-06
      ]
    },
    {
      "name": "thigh_twist.l_040",
      "rotation": [
        -8.283648611495664e-08,
        0.17076700925827026,
        3.4706928886407695e-07,
        0.9853114485740662
      ],
      "scale": [
        0.9999998211860657,
        0.9999995231628418,
        1.0
      ],
      "translation": [
        -4.0531158447265625e-06,
        -3.0994415283203125e-06,
        1.430511474609375e-06
      ]
    },
    {
      "name": "thigh_twist_2.l_041",
      "rotation": [
        -1.6969876170946918e-08,
        0.08569885045289993,
        2.4075862370409595e-07,
        0.9963210821151733
      ],
      "scale": [
        0.9999998807907104,
        0.9999998807907104,
        0.9999998211860657
      ],
      "translation": [
        -1.9550323486328125e-05,
        11.42719841003418,
        -7.152557373046875e-07
      ]
    },
    {
      "children": [
        56,
        61,
        62
      ],
      "name": "thigh_stretch.r_047",
      "rotation": [
        0.741252064704895,
        -0.12489873170852661,
        -0.6575160026550293,
        0.051171980798244476
      ],
      "scale": [
        1.000002145767212,
        1.0000003576278687,
        1.000011682510376
      ],
      "translation": [
        -14.368425369262695,
        0.0,
        9.887668420560658e-05
      ]
    },
    {
      "children": [
        57,
        59,
        60
      ],
      "name": "leg_stretch.r_050",
      "rotation": [
        1.3539896599468193e-06,
        -4.6062623937359604e-07,
        -0.3866511583328247,
        0.922226071357727
      ],
      "scale": [
        1.0000001192092896,
        1.0,
        1.0000001192092896
      ],
      "translation": [
        3.4928321838378906e-05,
        34.28160095214844,
        -3.0994415283203125e-05
      ]
    },
    {
      "children": [
        58
      ],
      "name": "foot.r_051",
      "rotation": [
        0.4887576401233673,
        -0.4712715744972229,
        0.5493397116661072,
        0.4870779812335968
      ],
      "scale": [
        1.0000005960464478,
        0.9999998211860657,
        1.0000001192092896
      ],
      "translation": [
        -3.0994415283203125e-06,
        36.31656265258789,
        -8.940696716308594e-08
      ]
    },
    {
      "name": "toes_01.r_052",
      "rotation": [
        -3.082127975062576e-08,
        0.999456524848938,
        0.03296510502696037,
        -7.922002396298922e-07
      ],
      "scale": [
        0.9999998211860657,
        1.0000001192092896,
        0.9999996423721313
      ],
      "translation": [
        2.0490219867497217e-06,
        22.284931182861328,
        -5.960464477539063e-07
      ]
    },
    {
      "name": "leg_twist.r_053",
      "rotation": [
        -1.3670397436271742e-07,
        -0.020378611981868744,
        4.453892472611187e-07,
        0.9997923374176025
      ],
      "scale": [
        1.0,
        0.9999999403953552,
        1.0
      ],
      "translation": [
        -7.152557373046875e-07,
        24.211042404174805,
        6.556510925292969e-07
      ]
    },
    {
      "name": "leg_twist_2.r_054",
      "rotation": [
        -1.0101997105493865e-07,
        -0.010189901106059551,
        3.2320409104613645e-07,
        0.9999480843544006
      ],
      "scale": [
        0.9999999403953552,
        0.9999999403953552,
        0.9999998807907104
      ],
      "translation": [
        2.1457672119140625e-06,
        12.10551929473877,
        -4.76837158203125e-07
      ]
    },
    {
      "name": "thigh_twist.r_048",
      "rotation": [
        -7.598839033562399e-07,
        -0.08955638855695724,
        -5.162302727512724e-07,
        0.995981752872467
      ],
      "scale": [
        1.0,
        1.0000004768371582,
        1.0
      ],
      "translation": [
        6.67572021484375e-06,
        1.3232231140136719e-05,
        -7.152557373046875e-07
      ]
    },
    {
      "name": "thigh_twist_2.r_049",
      "rotation": [
        -4.787311240761483e-07,
        -0.04482325538992882,
        -3.63968695182848e-07,
        0.9989949464797974
      ],
      "scale": [
        1.0000001192092896,
        1.0000005960464478,
        1.0000003576278687
      ],
      "translation": [
        3.612041473388672e-05,
        11.427205085754395,
        -3.2782554626464844e-05
      ]
    }
  ],
  "samplers": [
    {
      "magFilter": 9729,
      "minFilter": 9987,
      "wrapS": 10497,
      "wrapT": 10497
    }
  ],
  "scene": 0,
  "scenes": [
    {
      "name": "Sketchfab_Scene",
      "nodes": [
        0
      ]
    }
  ],
  "skins": [
    {
      "inverseBindMatrices": 6,
      "joints": [
        5,
        8,
        9,
        10,
        11,
        12,
        13,
        14,
        15,
        16,
        17,
        18,
        19,
        20,
        21,
        22,
        23,
        24,
        25,
        26,
        27,
        28,
        29,
        30,
        31,
        32,
        33,
        34,
        35,
        36,
        37,
        38,
        39,
        40,
        41,
        42,
        43,
        44,
        45,
        46,
        47,
        48,
        49,
        50,
        51,
        52,
        53,
        54,
        55,
        56,
        57,
        58,
        59,
        60,
        61,
        62
      ],
      "skeleton": 5
    }
  ],
  "textures": [
    {
      "sampler": 0,
      "source": 0
    },
    {
      "sampler": 0,
      "source": 1
    },
    {
      "sampler": 0,
      "source": 2
    }
  ]
}
